<svg width="310" height="49" viewBox="0 0 281 31" fill="none" xmlns="http://www.w3.org/2000/svg">
<path d="M11.95 12.26C13.13 12.48 14.1 13.07 14.86 14.03C15.62 14.99 16 16.09 16 17.33C16 18.45 15.72 19.44 15.16 20.3C14.62 21.14 13.83 21.8 12.79 22.28C11.75 22.76 10.52 23 9.1 23H0.0700003V2.06H8.71C10.13 2.06 11.35 2.29 12.37 2.75C13.41 3.21 14.19 3.85 14.71 4.67C15.25 5.49 15.52 6.42 15.52 7.46C15.52 8.68 15.19 9.7 14.53 10.52C13.89 11.34 13.03 11.92 11.95 12.26ZM4.27 10.7H8.11C9.11 10.7 9.88 10.48 10.42 10.04C10.96 9.58 11.23 8.93 11.23 8.09C11.23 7.25 10.96 6.6 10.42 6.14C9.88 5.68 9.11 5.45 8.11 5.45H4.27V10.7ZM8.5 19.58C9.52 19.58 10.31 19.34 10.87 18.86C11.45 18.38 11.74 17.7 11.74 16.82C11.74 15.92 11.44 15.22 10.84 14.72C10.24 14.2 9.43 13.94 8.41 13.94H4.27V19.58H8.5ZM47.1288 19.01H38.7888L37.4088 23H32.9988L40.5288 2.03H45.4188L52.9488 23H48.5088L47.1288 19.01ZM45.9888 15.65L42.9588 6.89L39.9288 15.65H45.9888ZM54.6834 14.69C54.6834 12.97 55.0334 11.47 55.7334 10.19C56.4334 8.89 57.4034 7.89 58.6434 7.19C59.8834 6.47 61.3034 6.11 62.9034 6.11C64.9634 6.11 66.6634 6.63 68.0034 7.67C69.3634 8.69 70.2734 10.13 70.7334 11.99H66.2034C65.9634 11.27 65.5534 10.71 64.9734 10.31C64.4134 9.89 63.7134 9.68 62.8734 9.68C61.6734 9.68 60.7234 10.12 60.0234 11C59.3234 11.86 58.9734 13.09 58.9734 14.69C58.9734 16.27 59.3234 17.5 60.0234 18.38C60.7234 19.24 61.6734 19.67 62.8734 19.67C64.5734 19.67 65.6834 18.91 66.2034 17.39H70.7334C70.2734 19.19 69.3634 20.62 68.0034 21.68C66.6434 22.74 64.9434 23.27 62.9034 23.27C61.3034 23.27 59.8834 22.92 58.6434 22.22C57.4034 21.5 56.4334 20.5 55.7334 19.22C55.0334 17.92 54.6834 16.41 54.6834 14.69ZM72.7302 14.63C72.7302 12.95 73.0602 11.46 73.7202 10.16C74.4002 8.86 75.3102 7.86 76.4502 7.16C77.6102 6.46 78.9002 6.11 80.3202 6.11C81.5602 6.11 82.6402 6.36 83.5602 6.86C84.5002 7.36 85.2502 7.99 85.8102 8.75V6.38H90.0402V23H85.8102V20.57C85.2702 21.35 84.5202 22 83.5602 22.52C82.6202 23.02 81.5302 23.27 80.2902 23.27C78.8902 23.27 77.6102 22.91 76.4502 22.19C75.3102 21.47 74.4002 20.46 73.7202 19.16C73.0602 17.84 72.7302 16.33 72.7302 14.63ZM85.8102 14.69C85.8102 13.67 85.6102 12.8 85.2102 12.08C84.8102 11.34 84.2702 10.78 83.5902 10.4C82.9102 10 82.1802 9.8 81.4002 9.8C80.6202 9.8 79.9002 9.99 79.2402 10.37C78.5802 10.75 78.0402 11.31 77.6202 12.05C77.2202 12.77 77.0202 13.63 77.0202 14.63C77.0202 15.63 77.2202 16.51 77.6202 17.27C78.0402 18.01 78.5802 18.58 79.2402 18.98C79.9202 19.38 80.6402 19.58 81.4002 19.58C82.1802 19.58 82.9102 19.39 83.5902 19.01C84.2702 18.61 84.8102 18.05 85.2102 17.33C85.6102 16.59 85.8102 15.71 85.8102 14.69ZM93.0623 14.63C93.0623 12.95 93.3923 11.46 94.0523 10.16C94.7323 8.86 95.6523 7.86 96.8123 7.16C97.9723 6.46 99.2623 6.11 100.682 6.11C101.762 6.11 102.792 6.35 103.772 6.83C104.752 7.29 105.532 7.91 106.112 8.69V0.799998H110.372V23H106.112V20.54C105.592 21.36 104.862 22.02 103.922 22.52C102.982 23.02 101.892 23.27 100.652 23.27C99.2523 23.27 97.9723 22.91 96.8123 22.19C95.6523 21.47 94.7323 20.46 94.0523 19.16C93.3923 17.84 93.0623 16.33 93.0623 14.63ZM106.142 14.69C106.142 13.67 105.942 12.8 105.542 12.08C105.142 11.34 104.602 10.78 103.922 10.4C103.242 10 102.512 9.8 101.732 9.8C100.952 9.8 100.232 9.99 99.5723 10.37C98.9123 10.75 98.3723 11.31 97.9523 12.05C97.5523 12.77 97.3523 13.63 97.3523 14.63C97.3523 15.63 97.5523 16.51 97.9523 17.27C98.3723 18.01 98.9123 18.58 99.5723 18.98C100.252 19.38 100.972 19.58 101.732 19.58C102.512 19.58 103.242 19.39 103.922 19.01C104.602 18.61 105.142 18.05 105.542 17.33C105.942 16.59 106.142 15.71 106.142 14.69ZM129.924 14.33C129.924 14.93 129.884 15.47 129.804 15.95H117.654C117.754 17.15 118.174 18.09 118.914 18.77C119.654 19.45 120.564 19.79 121.644 19.79C123.204 19.79 124.314 19.12 124.974 17.78H129.504C129.024 19.38 128.104 20.7 126.744 21.74C125.384 22.76 123.714 23.27 121.734 23.27C120.134 23.27 118.694 22.92 117.414 22.22C116.154 21.5 115.164 20.49 114.444 19.19C113.744 17.89 113.394 16.39 113.394 14.69C113.394 12.97 113.744 11.46 114.444 10.16C115.144 8.86 116.124 7.86 117.384 7.16C118.644 6.46 120.094 6.11 121.734 6.11C123.314 6.11 124.724 6.45 125.964 7.13C127.224 7.81 128.194 8.78 128.874 10.04C129.574 11.28 129.924 12.71 129.924 14.33ZM125.574 13.13C125.554 12.05 125.164 11.19 124.404 10.55C123.644 9.89 122.714 9.56 121.614 9.56C120.574 9.56 119.694 9.88 118.974 10.52C118.274 11.14 117.844 12.01 117.684 13.13H125.574ZM153.63 6.14C155.67 6.14 157.31 6.77 158.55 8.03C159.81 9.27 160.44 11.01 160.44 13.25V23H156.24V13.82C156.24 12.52 155.91 11.53 155.25 10.85C154.59 10.15 153.69 9.8 152.55 9.8C151.41 9.8 150.5 10.15 149.82 10.85C149.16 11.53 148.83 12.52 148.83 13.82V23H144.63V13.82C144.63 12.52 144.3 11.53 143.64 10.85C142.98 10.15 142.08 9.8 140.94 9.8C139.78 9.8 138.86 10.15 138.18 10.85C137.52 11.53 137.19 12.52 137.19 13.82V23H132.99V6.38H137.19V8.39C137.73 7.69 138.42 7.14 139.26 6.74C140.12 6.34 141.06 6.14 142.08 6.14C143.38 6.14 144.54 6.42 145.56 6.98C146.58 7.52 147.37 8.3 147.93 9.32C148.47 8.36 149.25 7.59 150.27 7.01C151.31 6.43 152.43 6.14 153.63 6.14ZM180.325 6.38L170.035 30.86H165.565L169.165 22.58L162.505 6.38H167.215L171.505 17.99L175.855 6.38H180.325ZM211.186 18.35H202.066L200.386 23H197.506L205.066 2.21H208.216L215.746 23H212.866L211.186 18.35ZM210.406 16.13L206.626 5.57L202.846 16.13H210.406ZM233.62 6.56V23H230.89V20.57C230.37 21.41 229.64 22.07 228.7 22.55C227.78 23.01 226.76 23.24 225.64 23.24C224.36 23.24 223.21 22.98 222.19 22.46C221.17 21.92 220.36 21.12 219.76 20.06C219.18 19 218.89 17.71 218.89 16.19V6.56H221.59V15.83C221.59 17.45 222 18.7 222.82 19.58C223.64 20.44 224.76 20.87 226.18 20.87C227.64 20.87 228.79 20.42 229.63 19.52C230.47 18.62 230.89 17.31 230.89 15.59V6.56H233.62ZM241.56 8.81V18.5C241.56 19.3 241.73 19.87 242.07 20.21C242.41 20.53 243 20.69 243.84 20.69H245.85V23H243.39C241.87 23 240.73 22.65 239.97 21.95C239.21 21.25 238.83 20.1 238.83 18.5V8.81H236.7V6.56H238.83V2.42H241.56V6.56H245.85V8.81H241.56ZM256.328 23.27C254.788 23.27 253.388 22.92 252.128 22.22C250.888 21.52 249.908 20.53 249.188 19.25C248.488 17.95 248.138 16.45 248.138 14.75C248.138 13.07 248.498 11.59 249.218 10.31C249.958 9.01 250.958 8.02 252.218 7.34C253.478 6.64 254.888 6.29 256.448 6.29C258.008 6.29 259.418 6.64 260.678 7.34C261.938 8.02 262.928 9 263.648 10.28C264.388 11.56 264.758 13.05 264.758 14.75C264.758 16.45 264.378 17.95 263.618 19.25C262.878 20.53 261.868 21.52 260.588 22.22C259.308 22.92 257.888 23.27 256.328 23.27ZM256.328 20.87C257.308 20.87 258.228 20.64 259.088 20.18C259.948 19.72 260.638 19.03 261.158 18.11C261.698 17.19 261.968 16.07 261.968 14.75C261.968 13.43 261.708 12.31 261.188 11.39C260.668 10.47 259.988 9.79 259.148 9.35C258.308 8.89 257.398 8.66 256.418 8.66C255.418 8.66 254.498 8.89 253.658 9.35C252.838 9.79 252.178 10.47 251.678 11.39C251.178 12.31 250.928 13.43 250.928 14.75C250.928 16.09 251.168 17.22 251.648 18.14C252.148 19.06 252.808 19.75 253.628 20.21C254.448 20.65 255.348 20.87 256.328 20.87ZM274.167 23.27C272.907 23.27 271.777 23.06 270.777 22.64C269.777 22.2 268.987 21.6 268.407 20.84C267.827 20.06 267.507 19.17 267.447 18.17H270.267C270.347 18.99 270.727 19.66 271.407 20.18C272.107 20.7 273.017 20.96 274.137 20.96C275.177 20.96 275.997 20.73 276.597 20.27C277.197 19.81 277.497 19.23 277.497 18.53C277.497 17.81 277.177 17.28 276.537 16.94C275.897 16.58 274.907 16.23 273.567 15.89C272.347 15.57 271.347 15.25 270.567 14.93C269.807 14.59 269.147 14.1 268.587 13.46C268.047 12.8 267.777 11.94 267.777 10.88C267.777 10.04 268.027 9.27 268.527 8.57C269.027 7.87 269.737 7.32 270.657 6.92C271.577 6.5 272.627 6.29 273.807 6.29C275.627 6.29 277.097 6.75 278.217 7.67C279.337 8.59 279.937 9.85 280.017 11.45H277.287C277.227 10.59 276.877 9.9 276.237 9.38C275.617 8.86 274.777 8.6 273.717 8.6C272.737 8.6 271.957 8.81 271.377 9.23C270.797 9.65 270.507 10.2 270.507 10.88C270.507 11.42 270.677 11.87 271.017 12.23C271.377 12.57 271.817 12.85 272.337 13.07C272.877 13.27 273.617 13.5 274.557 13.76C275.737 14.08 276.697 14.4 277.437 14.72C278.177 15.02 278.807 15.48 279.327 16.1C279.867 16.72 280.147 17.53 280.167 18.53C280.167 19.43 279.917 20.24 279.417 20.96C278.917 21.68 278.207 22.25 277.287 22.67C276.387 23.07 275.347 23.27 274.167 23.27Z" fill="white"/>
<path d="M21.2073 23.21C20.4473 23.21 19.8173 22.98 19.3173 22.52C18.8373 22.04 18.5973 21.45 18.5973 20.75C18.5973 20.05 18.8373 19.47 19.3173 19.01C19.8173 18.53 20.4473 18.29 21.2073 18.29C21.9473 18.29 22.5573 18.53 23.0373 19.01C23.5173 19.47 23.7573 20.05 23.7573 20.75C23.7573 21.45 23.5173 22.04 23.0373 22.52C22.5573 22.98 21.9473 23.21 21.2073 23.21Z" fill="#FF3366"/>
</svg>
