<svg width="212" height="19" viewBox="0 0 212 19" fill="none" xmlns="http://www.w3.org/2000/svg">
<path d="M7.37 7.556C8.078 7.688 8.66 8.042 9.116 8.618C9.572 9.194 9.8 9.854 9.8 10.598C9.8 11.27 9.632 11.864 9.296 12.38C8.972 12.884 8.498 13.28 7.874 13.568C7.25 13.856 6.512 14 5.66 14H0.242V1.436H5.426C6.278 1.436 7.01 1.574 7.622 1.85C8.246 2.126 8.714 2.51 9.026 3.002C9.35 3.494 9.512 4.052 9.512 4.676C9.512 5.408 9.314 6.02 8.918 6.512C8.534 7.004 8.018 7.352 7.37 7.556ZM2.762 6.62H5.066C5.666 6.62 6.128 6.488 6.452 6.224C6.776 5.948 6.938 5.558 6.938 5.054C6.938 4.55 6.776 4.16 6.452 3.884C6.128 3.608 5.666 3.47 5.066 3.47H2.762V6.62ZM5.3 11.948C5.912 11.948 6.386 11.804 6.722 11.516C7.07 11.228 7.244 10.82 7.244 10.292C7.244 9.752 7.064 9.332 6.704 9.032C6.344 8.72 5.858 8.564 5.246 8.564H2.762V11.948H5.3ZM28.4773 11.606H23.4733L22.6453 14H19.9993L24.5173 1.418H27.4513L31.9693 14H29.3053L28.4773 11.606ZM27.7933 9.59L25.9753 4.334L24.1572 9.59H27.7933ZM33.01 9.014C33.01 7.982 33.22 7.082 33.64 6.314C34.06 5.534 34.642 4.934 35.386 4.514C36.13 4.082 36.982 3.866 37.942 3.866C39.178 3.866 40.198 4.178 41.002 4.802C41.818 5.414 42.364 6.278 42.64 7.394H39.922C39.778 6.962 39.532 6.626 39.184 6.386C38.848 6.134 38.428 6.008 37.924 6.008C37.204 6.008 36.634 6.272 36.214 6.8C35.794 7.316 35.584 8.054 35.584 9.014C35.584 9.962 35.794 10.7 36.214 11.228C36.634 11.744 37.204 12.002 37.924 12.002C38.944 12.002 39.61 11.546 39.922 10.634H42.64C42.364 11.714 41.818 12.572 41.002 13.208C40.186 13.844 39.166 14.162 37.942 14.162C36.982 14.162 36.13 13.952 35.386 13.532C34.642 13.1 34.06 12.5 33.64 11.732C33.22 10.952 33.01 10.046 33.01 9.014ZM43.8381 8.978C43.8381 7.97 44.0361 7.076 44.4321 6.296C44.8401 5.516 45.3861 4.916 46.0701 4.496C46.7661 4.076 47.5401 3.866 48.3921 3.866C49.1361 3.866 49.7841 4.016 50.3361 4.316C50.9001 4.616 51.3501 4.994 51.6861 5.45V4.028H54.2241V14H51.6861V12.542C51.3621 13.01 50.9121 13.4 50.3361 13.712C49.7721 14.012 49.1181 14.162 48.3741 14.162C47.5341 14.162 46.7661 13.946 46.0701 13.514C45.3861 13.082 44.8401 12.476 44.4321 11.696C44.0361 10.904 43.8381 9.998 43.8381 8.978ZM51.6861 9.014C51.6861 8.402 51.5661 7.88 51.3261 7.448C51.0861 7.004 50.7621 6.668 50.3541 6.44C49.9461 6.2 49.5081 6.08 49.0401 6.08C48.5721 6.08 48.1401 6.194 47.7441 6.422C47.3481 6.65 47.0241 6.986 46.7721 7.43C46.5321 7.862 46.4121 8.378 46.4121 8.978C46.4121 9.578 46.5321 10.106 46.7721 10.562C47.0241 11.006 47.3481 11.348 47.7441 11.588C48.1521 11.828 48.5841 11.948 49.0401 11.948C49.5081 11.948 49.9461 11.834 50.3541 11.606C50.7621 11.366 51.0861 11.03 51.3261 10.598C51.5661 10.154 51.6861 9.626 51.6861 9.014ZM56.0374 8.978C56.0374 7.97 56.2354 7.076 56.6314 6.296C57.0394 5.516 57.5914 4.916 58.2874 4.496C58.9834 4.076 59.7574 3.866 60.6094 3.866C61.2574 3.866 61.8754 4.01 62.4634 4.298C63.0514 4.574 63.5194 4.946 63.8674 5.414V0.68H66.4234V14H63.8674V12.524C63.5554 13.016 63.1174 13.412 62.5534 13.712C61.9894 14.012 61.3354 14.162 60.5914 14.162C59.7514 14.162 58.9834 13.946 58.2874 13.514C57.5914 13.082 57.0394 12.476 56.6314 11.696C56.2354 10.904 56.0374 9.998 56.0374 8.978ZM63.8854 9.014C63.8854 8.402 63.7654 7.88 63.5254 7.448C63.2854 7.004 62.9614 6.668 62.5534 6.44C62.1454 6.2 61.7074 6.08 61.2394 6.08C60.7714 6.08 60.3394 6.194 59.9434 6.422C59.5474 6.65 59.2234 6.986 58.9714 7.43C58.7314 7.862 58.6114 8.378 58.6114 8.978C58.6114 9.578 58.7314 10.106 58.9714 10.562C59.2234 11.006 59.5474 11.348 59.9434 11.588C60.3514 11.828 60.7834 11.948 61.2394 11.948C61.7074 11.948 62.1454 11.834 62.5534 11.606C62.9614 11.366 63.2854 11.03 63.5254 10.598C63.7654 10.154 63.8854 9.626 63.8854 9.014ZM78.1546 8.798C78.1546 9.158 78.1306 9.482 78.0826 9.77H70.7926C70.8526 10.49 71.1046 11.054 71.5486 11.462C71.9926 11.87 72.5386 12.074 73.1866 12.074C74.1226 12.074 74.7886 11.672 75.1846 10.868H77.9026C77.6146 11.828 77.0626 12.62 76.2466 13.244C75.4306 13.856 74.4286 14.162 73.2406 14.162C72.2806 14.162 71.4166 13.952 70.6486 13.532C69.8926 13.1 69.2986 12.494 68.8666 11.714C68.4466 10.934 68.2366 10.034 68.2366 9.014C68.2366 7.982 68.4466 7.076 68.8666 6.296C69.2866 5.516 69.8746 4.916 70.6306 4.496C71.3866 4.076 72.2566 3.866 73.2406 3.866C74.1886 3.866 75.0346 4.07 75.7786 4.478C76.5346 4.886 77.1166 5.468 77.5246 6.224C77.9446 6.968 78.1546 7.826 78.1546 8.798ZM75.5446 8.078C75.5326 7.43 75.2986 6.914 74.8426 6.53C74.3866 6.134 73.8286 5.936 73.1686 5.936C72.5446 5.936 72.0166 6.128 71.5846 6.512C71.1646 6.884 70.9066 7.406 70.8106 8.078H75.5446ZM92.378 3.884C93.602 3.884 94.586 4.262 95.33 5.018C96.086 5.762 96.464 6.806 96.464 8.15V14H93.944V8.492C93.944 7.712 93.746 7.118 93.35 6.71C92.954 6.29 92.414 6.08 91.73 6.08C91.046 6.08 90.5 6.29 90.092 6.71C89.696 7.118 89.498 7.712 89.498 8.492V14H86.978V8.492C86.978 7.712 86.78 7.118 86.384 6.71C85.988 6.29 85.448 6.08 84.764 6.08C84.068 6.08 83.516 6.29 83.108 6.71C82.712 7.118 82.514 7.712 82.514 8.492V14H79.994V4.028H82.514V5.234C82.838 4.814 83.252 4.484 83.756 4.244C84.272 4.004 84.836 3.884 85.448 3.884C86.228 3.884 86.924 4.052 87.536 4.388C88.148 4.712 88.622 5.18 88.958 5.792C89.282 5.216 89.75 4.754 90.362 4.406C90.986 4.058 91.658 3.884 92.378 3.884ZM108.395 4.028L102.221 18.716H99.5393L101.699 13.748L97.7033 4.028H100.529L103.103 10.994L105.713 4.028H108.395ZM125.777 7.538C126.233 7.61 126.647 7.796 127.019 8.096C127.403 8.396 127.703 8.768 127.919 9.212C128.147 9.656 128.261 10.13 128.261 10.634C128.261 11.27 128.099 11.846 127.775 12.362C127.451 12.866 126.977 13.268 126.353 13.568C125.741 13.856 125.015 14 124.175 14H119.495V1.454H123.995C124.847 1.454 125.573 1.598 126.173 1.886C126.773 2.162 127.223 2.54 127.523 3.02C127.823 3.5 127.973 4.04 127.973 4.64C127.973 5.384 127.769 6.002 127.361 6.494C126.965 6.974 126.437 7.322 125.777 7.538ZM121.133 6.872H123.887C124.655 6.872 125.249 6.692 125.669 6.332C126.089 5.972 126.299 5.474 126.299 4.838C126.299 4.202 126.089 3.704 125.669 3.344C125.249 2.984 124.643 2.804 123.851 2.804H121.133V6.872ZM124.031 12.65C124.847 12.65 125.483 12.458 125.939 12.074C126.395 11.69 126.623 11.156 126.623 10.472C126.623 9.776 126.383 9.23 125.903 8.834C125.423 8.426 124.781 8.222 123.977 8.222H121.133V12.65H124.031ZM134.836 14.162C133.912 14.162 133.072 13.952 132.316 13.532C131.572 13.112 130.984 12.518 130.552 11.75C130.132 10.97 129.922 10.07 129.922 9.05C129.922 8.042 130.138 7.154 130.57 6.386C131.014 5.606 131.614 5.012 132.37 4.604C133.126 4.184 133.972 3.974 134.908 3.974C135.844 3.974 136.69 4.184 137.446 4.604C138.202 5.012 138.796 5.6 139.228 6.368C139.672 7.136 139.894 8.03 139.894 9.05C139.894 10.07 139.666 10.97 139.21 11.75C138.766 12.518 138.16 13.112 137.392 13.532C136.624 13.952 135.772 14.162 134.836 14.162ZM134.836 12.722C135.424 12.722 135.976 12.584 136.492 12.308C137.008 12.032 137.422 11.618 137.734 11.066C138.058 10.514 138.22 9.842 138.22 9.05C138.22 8.258 138.064 7.586 137.752 7.034C137.44 6.482 137.032 6.074 136.528 5.81C136.024 5.534 135.478 5.396 134.89 5.396C134.29 5.396 133.738 5.534 133.234 5.81C132.742 6.074 132.346 6.482 132.046 7.034C131.746 7.586 131.596 8.258 131.596 9.05C131.596 9.854 131.74 10.532 132.028 11.084C132.328 11.636 132.724 12.05 133.216 12.326C133.708 12.59 134.248 12.722 134.836 12.722ZM146.35 14.162C145.426 14.162 144.586 13.952 143.83 13.532C143.086 13.112 142.498 12.518 142.066 11.75C141.646 10.97 141.436 10.07 141.436 9.05C141.436 8.042 141.652 7.154 142.084 6.386C142.528 5.606 143.128 5.012 143.884 4.604C144.64 4.184 145.486 3.974 146.422 3.974C147.358 3.974 148.204 4.184 148.96 4.604C149.716 5.012 150.31 5.6 150.742 6.368C151.186 7.136 151.408 8.03 151.408 9.05C151.408 10.07 151.18 10.97 150.724 11.75C150.28 12.518 149.674 13.112 148.906 13.532C148.138 13.952 147.286 14.162 146.35 14.162ZM146.35 12.722C146.938 12.722 147.49 12.584 148.006 12.308C148.522 12.032 148.936 11.618 149.248 11.066C149.572 10.514 149.734 9.842 149.734 9.05C149.734 8.258 149.578 7.586 149.266 7.034C148.954 6.482 148.546 6.074 148.042 5.81C147.538 5.534 146.992 5.396 146.404 5.396C145.804 5.396 145.252 5.534 144.748 5.81C144.256 6.074 143.86 6.482 143.56 7.034C143.26 7.586 143.11 8.258 143.11 9.05C143.11 9.854 143.254 10.532 143.542 11.084C143.842 11.636 144.238 12.05 144.73 12.326C145.222 12.59 145.762 12.722 146.35 12.722ZM155.56 5.486V11.3C155.56 11.78 155.662 12.122 155.866 12.326C156.07 12.518 156.424 12.614 156.928 12.614H158.134V14H156.658C155.746 14 155.062 13.79 154.606 13.37C154.15 12.95 153.922 12.26 153.922 11.3V5.486H152.644V4.136H153.922V1.652H155.56V4.136H158.134V5.486H155.56ZM159.506 9.05C159.506 8.03 159.71 7.142 160.118 6.386C160.526 5.618 161.09 5.024 161.81 4.604C162.542 4.184 163.376 3.974 164.312 3.974C165.524 3.974 166.52 4.268 167.3 4.856C168.092 5.444 168.614 6.26 168.866 7.304H167.102C166.934 6.704 166.604 6.23 166.112 5.882C165.632 5.534 165.032 5.36 164.312 5.36C163.376 5.36 162.62 5.684 162.044 6.332C161.468 6.968 161.18 7.874 161.18 9.05C161.18 10.238 161.468 11.156 162.044 11.804C162.62 12.452 163.376 12.776 164.312 12.776C165.032 12.776 165.632 12.608 166.112 12.272C166.592 11.936 166.922 11.456 167.102 10.832H168.866C168.602 11.84 168.074 12.65 167.282 13.262C166.49 13.862 165.5 14.162 164.312 14.162C163.376 14.162 162.542 13.952 161.81 13.532C161.09 13.112 160.526 12.518 160.118 11.75C159.71 10.982 159.506 10.082 159.506 9.05ZM170.44 9.032C170.44 8.024 170.644 7.142 171.052 6.386C171.46 5.618 172.018 5.024 172.726 4.604C173.446 4.184 174.244 3.974 175.12 3.974C175.984 3.974 176.734 4.16 177.37 4.532C178.006 4.904 178.48 5.372 178.792 5.936V4.136H180.448V14H178.792V12.164C178.468 12.74 177.982 13.22 177.334 13.604C176.698 13.976 175.954 14.162 175.102 14.162C174.226 14.162 173.434 13.946 172.726 13.514C172.018 13.082 171.46 12.476 171.052 11.696C170.644 10.916 170.44 10.028 170.44 9.032ZM178.792 9.05C178.792 8.306 178.642 7.658 178.342 7.106C178.042 6.554 177.634 6.134 177.118 5.846C176.614 5.546 176.056 5.396 175.444 5.396C174.832 5.396 174.274 5.54 173.77 5.828C173.266 6.116 172.864 6.536 172.564 7.088C172.264 7.64 172.114 8.288 172.114 9.032C172.114 9.788 172.264 10.448 172.564 11.012C172.864 11.564 173.266 11.99 173.77 12.29C174.274 12.578 174.832 12.722 175.444 12.722C176.056 12.722 176.614 12.578 177.118 12.29C177.634 11.99 178.042 11.564 178.342 11.012C178.642 10.448 178.792 9.794 178.792 9.05ZM195.078 3.956C195.846 3.956 196.53 4.118 197.13 4.442C197.73 4.754 198.204 5.228 198.552 5.864C198.9 6.5 199.074 7.274 199.074 8.186V14H197.454V8.42C197.454 7.436 197.208 6.686 196.716 6.17C196.236 5.642 195.582 5.378 194.754 5.378C193.902 5.378 193.224 5.654 192.72 6.206C192.216 6.746 191.964 7.532 191.964 8.564V14H190.344V8.42C190.344 7.436 190.098 6.686 189.606 6.17C189.126 5.642 188.472 5.378 187.644 5.378C186.792 5.378 186.114 5.654 185.61 6.206C185.106 6.746 184.854 7.532 184.854 8.564V14H183.216V4.136H184.854V5.558C185.178 5.042 185.61 4.646 186.15 4.37C186.702 4.094 187.308 3.956 187.968 3.956C188.796 3.956 189.528 4.142 190.164 4.514C190.8 4.886 191.274 5.432 191.586 6.152C191.862 5.456 192.318 4.916 192.954 4.532C193.59 4.148 194.298 3.956 195.078 3.956ZM203.399 5.954C203.723 5.39 204.203 4.922 204.839 4.55C205.487 4.166 206.237 3.974 207.089 3.974C207.965 3.974 208.757 4.184 209.465 4.604C210.185 5.024 210.749 5.618 211.157 6.386C211.565 7.142 211.769 8.024 211.769 9.032C211.769 10.028 211.565 10.916 211.157 11.696C210.749 12.476 210.185 13.082 209.465 13.514C208.757 13.946 207.965 14.162 207.089 14.162C206.249 14.162 205.505 13.976 204.857 13.604C204.221 13.22 203.735 12.746 203.399 12.182V18.68H201.761V4.136H203.399V5.954ZM210.095 9.032C210.095 8.288 209.945 7.64 209.645 7.088C209.345 6.536 208.937 6.116 208.421 5.828C207.917 5.54 207.359 5.396 206.747 5.396C206.147 5.396 205.589 5.546 205.073 5.846C204.569 6.134 204.161 6.56 203.849 7.124C203.549 7.676 203.399 8.318 203.399 9.05C203.399 9.794 203.549 10.448 203.849 11.012C204.161 11.564 204.569 11.99 205.073 12.29C205.589 12.578 206.147 12.722 206.747 12.722C207.359 12.722 207.917 12.578 208.421 12.29C208.937 11.99 209.345 11.564 209.645 11.012C209.945 10.448 210.095 9.788 210.095 9.032Z" fill="white"/>
<path d="M12.9244 14.126C12.4684 14.126 12.0904 13.988 11.7904 13.712C11.5024 13.424 11.3584 13.07 11.3584 12.65C11.3584 12.23 11.5024 11.882 11.7904 11.606C12.0904 11.318 12.4684 11.174 12.9244 11.174C13.3684 11.174 13.7344 11.318 14.0224 11.606C14.3104 11.882 14.4544 12.23 14.4544 12.65C14.4544 13.07 14.3104 13.424 14.0224 13.712C13.7344 13.988 13.3684 14.126 12.9244 14.126Z" fill="#FF3366"/>
</svg>
